<svg width="57" height="57" viewBox="0 0 57 57" fill="none" xmlns="http://www.w3.org/2000/svg">
<g clip-path="url(#clip0_436_75)">
<mask id="mask0_436_75" style="mask-type:luminance" maskUnits="userSpaceOnUse" x="0" y="0" width="57" height="57">
<path d="M44.3861 0H12.6139C5.64743 0 0 5.64743 0 12.6139V44.3861C0 51.3526 5.64743 57 12.6139 57H44.3861C51.3526 57 57 51.3526 57 44.3861V12.6139C57 5.64743 51.3526 0 44.3861 0Z" fill="white"/>
</mask>
<g mask="url(#mask0_436_75)">
<path d="M44.3861 0H12.6139C5.64743 0 0 5.64743 0 12.6139V44.3861C0 51.3526 5.64743 57 12.6139 57H44.3861C51.3526 57 57 51.3526 57 44.3861V12.6139C57 5.64743 51.3526 0 44.3861 0Z" fill="#61EB76"/>
<path d="M2.9089 44.0108L2.83819 40.0857L9.45073 39.9443H11.3249L11.4663 41.7831L11.5017 42.3842C11.5724 43.1621 11.6195 43.8104 11.6431 44.3291C11.6903 44.8241 11.7374 45.6138 11.7846 46.6983C11.8317 47.7827 11.8553 48.7256 11.8553 49.5271C11.8553 50.3051 11.8199 51.2481 11.7492 52.356C11.702 53.4638 11.6078 54.4307 11.4663 55.2556C11.3484 56.0573 11.1598 56.906 10.9005 57.8016C10.6412 58.6741 10.3348 59.4045 9.98115 59.994C9.62754 60.5598 9.17962 61.0549 8.63743 61.4792C8.09519 61.8798 7.48228 62.1157 6.79865 62.1864C5.76136 62.3041 4.85377 62.2571 4.07582 62.045C3.32145 61.8091 2.72031 61.4322 2.2724 60.9134C1.8245 60.3946 1.48267 59.8172 1.24693 59.1807C1.03476 58.5205 0.881534 57.7425 0.787236 56.8469C0.716513 56.1634 0.681152 55.0904 0.681152 53.629V52.8157H4.6416C4.6416 52.9334 4.62981 53.2163 4.60624 53.6644C4.60624 54.8667 4.6416 55.7861 4.71232 56.4226C4.78304 57.0591 4.93628 57.5425 5.17202 57.8724C5.43134 58.2022 5.8439 58.3321 6.40968 58.2613C7.98911 58.0961 8.41344 53.3108 7.68268 43.9047L2.9089 44.0108ZM20.7179 43.5865C20.0107 43.6101 19.3742 44.0462 18.8084 44.8948C18.2427 45.7435 17.783 46.8279 17.4294 48.1481C17.1229 49.3739 16.9578 50.6823 16.9343 52.0731C16.9343 53.3931 17.0875 54.6075 17.394 55.7153C17.9598 57.6248 18.8202 58.5912 19.9754 58.6149C20.2111 58.6149 20.4468 58.5442 20.6826 58.4028C20.9183 58.2613 21.1305 58.0729 21.3191 57.837C21.5313 57.5779 21.7198 57.2712 21.8849 56.9176C22.0734 56.5403 22.2385 56.1397 22.3799 55.7153C22.5214 55.291 22.651 54.8313 22.7689 54.3363C23.0753 53.0633 23.2286 51.6959 23.2286 50.2344C23.2286 48.7728 23.0753 47.4762 22.7689 46.3446C22.2738 44.4587 21.5902 43.5393 20.7179 43.5865ZM13.6104 47.158C14.1761 45.0127 15.0483 43.2446 16.2271 41.8538C17.4058 40.4629 18.832 39.7203 20.5058 39.626C22.0381 39.5553 23.3111 40.0386 24.3248 41.0758C25.362 42.0895 26.1164 43.504 26.5879 45.3192C26.9886 46.7807 27.189 48.4192 27.189 50.2344C27.189 51.9788 26.9886 53.6528 26.5879 55.2556C26.0692 57.4718 25.2323 59.2514 24.0773 60.5952C22.9221 61.9389 21.5194 62.587 19.8693 62.54C18.2898 62.4931 16.9697 61.9626 15.9088 60.9488C14.8715 59.9117 14.1054 58.5326 13.6104 56.8115C13.186 55.3971 12.9856 53.8058 13.0092 52.0378C13.0328 50.3169 13.2332 48.6902 13.6104 47.158ZM39.0214 39.4139L38.8446 43.3743C37.5952 43.3036 36.4518 43.7279 35.4146 44.6473C34.4009 45.5667 33.6112 46.7572 33.0454 48.2188C32.5504 49.4918 32.2792 50.7766 32.2321 52.0731C32.2085 53.3931 32.4207 54.56 32.8686 55.5739C33.1751 56.2574 33.5994 56.8469 34.1416 57.3419C34.6838 57.837 35.391 58.226 36.2633 58.5089C37.1591 58.768 38.161 58.8625 39.269 58.7918L39.4811 62.7522C36.888 62.8699 34.7427 62.4223 33.0454 61.4085C31.3481 60.3946 30.0987 58.9802 29.2971 57.1651C28.5899 55.6093 28.2599 53.8882 28.307 52.0024C28.3542 50.1872 28.7078 48.4545 29.3679 46.8043C30.2401 44.5648 31.5249 42.7496 33.2222 41.3587C34.9195 39.9679 36.8526 39.3196 39.0214 39.4139ZM41.0956 39.2371L45.0207 39.3078L44.8085 50.2697C46.3644 49.9397 47.5077 49.3032 48.2385 48.3602C49.2758 47.0401 49.7355 44.8595 49.6176 41.8184L53.5779 41.7123C53.6961 45.7435 52.9536 48.7728 51.3503 50.8001C50.761 51.5545 50.042 52.2028 49.1933 52.745C49.6884 53.1456 50.1598 53.629 50.6077 54.1948C52.1636 56.1988 52.9889 59.0746 53.0829 62.8229L49.1579 62.929C49.0636 60.0294 48.5096 57.9193 47.496 56.5994C46.8359 55.7507 45.9047 55.1496 44.7024 54.7959L44.5256 62.8583L40.6005 62.7876L41.0956 39.2371Z" fill="white"/>
</g>
</g>
<defs>
<clipPath id="clip0_436_75">
<rect width="57" height="57" fill="white"/>
</clipPath>
</defs>
</svg>
